<svg xmlns="http://www.w3.org/2000/svg" version="1.1" xmlns:xlink="http://www.w3.org/1999/xlink" xmlns:svgjs="http://svgjs.dev/svgjs" width="1000" height="1000" viewBox="0 0 1000 1000"><rect width="1000" height="1000" fill="#ffffff"></rect><g transform="matrix(0.7,0,0,0.7,149.57634082531064,347.3158229666408)"><svg viewBox="0 0 396 173" data-background-color="#ffffff" preserveAspectRatio="xMidYMid meet" height="436" width="1000" xmlns="http://www.w3.org/2000/svg" xmlns:xlink="http://www.w3.org/1999/xlink"><g id="tight-bounds" transform="matrix(1,0,0,1,0.2397743261959988,0.04771502873896338)"><svg viewBox="0 0 395.5199999999999 172.90456985098297" height="172.90456985098297" width="395.5199999999999"><g><svg viewBox="0 0 395.5199999999999 172.90456985098297" height="172.90456985098297" width="395.5199999999999"><g transform="matrix(1,0,0,1,0,88.3571488229844)"><svg viewBox="0 0 395.5199999999999 84.54742102799855" height="84.54742102799855" width="395.5199999999999"><g id="textblocktransform"><svg viewBox="0 0 395.5199999999999 84.54742102799855" height="84.54742102799855" width="395.5199999999999" id="textblock"><g><svg viewBox="0 0 395.5199999999999 62.03729656870142" height="62.03729656870142" width="395.5199999999999"><g transform="matrix(1,0,0,1,0,0)"><svg width="395.5199999999999" viewBox="0.6060905456542969 -24.22705841064453 343.4314270019531 53.86719512939453" height="62.03729656870142" data-palette-color="#113f67"><path d="M28.743-2.842c2.27 1.133 3.957 2.655 5.061 4.565 1.105 1.904 1.478 3.924 1.118 6.06v0c-0.338 2.005-1.478 3.753-3.42 5.245-1.942 1.491-4.217 2.558-6.827 3.199-2.616 0.641-5.026 0.775-7.228 0.404v0c-1.591-0.268-3.139-0.61-4.644-1.027v0c-2.524-0.588-4.486-1-5.886-1.236v0l-6.311-1.064 0.291-1.726 5.092-2.772 4.829-28.636-4.802-2.432 1.457-1.965 5.739 0.968c2.899 0.489 5.768 0.875 8.607 1.157v0c2.192 0.234 3.797 0.437 4.816 0.61v0c2.163 0.365 4.003 1.101 5.52 2.208 1.523 1.109 2.619 2.45 3.286 4.023 0.668 1.573 0.854 3.234 0.56 4.982v0c-0.269 1.597-1.063 3.039-2.383 4.324-1.312 1.286-2.935 2.307-4.867 3.064v0zM28.574-9.118c0.414-2.452 0.108-4.569-0.917-6.35-1.026-1.775-2.797-2.875-5.315-3.3v0c-1.755-0.296-3.465-0.077-5.13 0.656v0l-2.129 12.621 6.548 1.105c1.88 0.317 3.43 0.068 4.649-0.748 1.218-0.809 1.983-2.137 2.294-3.984zM19.417 13.129c2.196 0.37 4.035 0.109 5.517-0.783 1.477-0.9 2.374-2.29 2.691-4.171v0c0.409-2.426 0.039-4.503-1.109-6.231-1.147-1.735-3.084-2.883-5.808-3.444v0c-0.229-0.005-0.534-0.039-0.916-0.103v0l-5.216-0.88-2.217 13.144c1.904 1.139 4.259 1.945 7.066 2.419v0zM70.769 24.482l-2.676-1.222-29.188-3.764 0.224-1.736 4.98-2.967 3.702-28.702-4.887-2.294 1.38-2.02 15.104 1.948-0.222 1.725-5.031 2.971-3.876 30.051 12.07 1.557 8.519-9.609 1.606 0.842zM102.162-12.856c3.48 0.301 6.485 1.387 9.013 3.258 2.535 1.872 4.408 4.322 5.618 7.351 1.218 3.023 1.668 6.367 1.351 10.034v0c-0.326 3.773-1.739 7.157-4.239 10.152-2.493 2.99-5.47 5.269-8.932 6.837-3.461 1.568-6.689 2.222-9.685 1.964v0c-3.447-0.298-6.435-1.376-8.965-3.234-2.529-1.858-4.403-4.298-5.621-7.321-1.211-3.022-1.658-6.37-1.34-10.043v0c0.325-3.766 1.736-7.154 4.23-10.163 2.502-3.016 5.474-5.305 8.914-6.868 3.448-1.569 6.666-2.224 9.656-1.967zM98.987-8.754c-2.059-0.178-3.988 0.271-5.788 1.347-1.793 1.076-3.274 2.651-4.443 4.725-1.169 2.074-1.87 4.446-2.1 7.116v0c-0.27 3.128-0.032 6.02 0.716 8.674 0.74 2.66 2.043 4.851 3.909 6.571 1.859 1.72 4.253 2.706 7.182 2.959v0c2.066 0.178 3.995-0.274 5.788-1.357 1.799-1.076 3.28-2.651 4.443-4.725 1.169-2.067 1.869-4.439 2.101-7.116v0c0.273-3.155 0.039-6.063-0.702-8.723-0.748-2.654-2.051-4.835-3.912-6.541-1.867-1.7-4.265-2.677-7.194-2.93zM146.256-10.245c1.745 0.074 3.753 0.399 6.024 0.976 2.277 0.584 3.937 1.175 4.979 1.773v0l-0.406 9.581-2.428-0.103c-2.659-5.124-6.379-7.787-11.161-7.99v0c-2.065-0.088-3.972 0.445-5.723 1.599-1.744 1.154-3.154 2.792-4.232 4.915-1.078 2.123-1.673 4.523-1.787 7.201v0c-0.132 3.104 0.225 5.952 1.069 8.543 0.844 2.591 2.22 4.695 4.126 6.31 1.907 1.616 4.312 2.485 7.216 2.608v0c2.811 0.119 6.881-1.68 12.21-5.397v0l1.444 2.533-9.196 6.547c-1.25 0.367-2.458 0.6-3.622 0.697-1.172 0.097-2.417 0.118-3.736 0.061v0c-3.424-0.145-6.433-1.097-9.027-2.854-2.594-1.765-4.566-4.12-5.916-7.067-1.343-2.953-1.936-6.271-1.78-9.955v0c0.16-3.777 1.421-7.223 3.781-10.339 2.368-3.123 5.236-5.54 8.605-7.252 3.376-1.719 6.562-2.514 9.56-2.387zM174.626 25.386l5.142 1.694-1.067 2.181-15.22 0.019-0.002-1.74 4.555-3.595-0.036-28.89-5.142-1.644 1.107-2.181 15.23-0.019 0.002 1.74-4.605 3.645zM202.208 27.002l-1.107 2.181-9.07 0.011-14.804-19.081 14.674-12.858-5.635-3.973 1.117-2.182 13.33-0.017 0.002 1.75-17.091 14.992 13.011 16.524zM226.932 19.819c-0.038-1.006-0.481-1.93-1.327-2.771-0.839-0.835-1.869-1.593-3.089-2.274-1.227-0.687-2.877-1.524-4.95-2.512v0c-2.466-1.167-4.47-2.187-6.011-3.063-1.535-0.882-2.853-1.939-3.955-3.171-1.095-1.239-1.672-2.631-1.731-4.177v0c-0.062-1.619 0.558-3.384 1.859-5.295 1.301-1.905 2.927-3.535 4.877-4.89 1.956-1.349 3.774-2.056 5.453-2.12v0c2.032-0.078 4.406 0.072 7.122 0.448 2.717 0.383 4.715 0.827 5.995 1.332v0l0.369 9.633-2.378 0.091c-1.619-2.553-3.376-4.524-5.27-5.913-1.894-1.382-3.861-2.034-5.899-1.956v0c-1.739 0.067-3.09 0.662-4.055 1.787-0.958 1.117-1.404 2.532-1.339 4.244v0c0.041 1.066 0.492 2.043 1.353 2.93 0.855 0.888 1.912 1.681 3.174 2.381 1.254 0.693 2.934 1.532 5.04 2.519v0c2.501 1.199 4.488 2.223 5.962 3.074 1.474 0.851 2.744 1.87 3.809 3.057 1.06 1.187 1.618 2.54 1.677 4.058v0c0.062 1.612-0.605 3.376-1.999 5.291-1.401 1.915-3.143 3.549-5.227 4.903-2.083 1.361-3.997 2.074-5.742 2.141v0c-2.125 0.081-4.669-0.065-7.632-0.438-2.956-0.374-5.091-0.809-6.405-1.306v0l-0.369-9.643 2.378-0.091c1.712 2.556 3.622 4.521 5.73 5.895 2.107 1.374 4.244 2.019 6.409 1.937v0c1.292-0.049 2.411-0.366 3.356-0.949 0.945-0.59 1.66-1.338 2.146-2.244 0.486-0.906 0.709-1.875 0.669-2.908zM271.915-13.946l0.945 12.334-1.651 0.708-7.254-9.072-5.613 0.43 2.428 31.707 5.251 1.253-0.901 2.255-15.175 1.162-0.134-1.745 4.274-3.917-2.314-30.212-5.464 0.418-5.788 10.072-1.739-0.449-0.945-12.334 2.869 0.663 28.477-2.181zM314.91 17.944l-0.81 2.29-15.305 1.788-0.204-1.738 4.319-3.968-4.568-8.155-15.981 1.868-2.669 8.95 8.639 2.072-0.849 2.294-14.839 1.734-0.204-1.738 4.257-4.152 9.761-32.523 5.394-3.118 17.916 32.168zM297.037 5.777l-8.703-15.626-5.163 17.246zM330.981 2.878l1.634 10.585 5.331 0.846-0.715 2.317-15.002 2.316-0.267-1.73 3.96-4.234-1.257-8.143-15.49-18.018-4.068-1.578 0.626-2.302 14.903-2.301 0.266 1.72-3.759 3.97 11.736 13.689 7.375-16.397-7.952-1.959 0.715-2.317 14.755-2.277 0.266 1.719-3.673 3.218z" opacity="1" transform="matrix(1,0,0,1,0,0)" fill="#113f67" class="undefined-text-0" data-fill-palette-color="primary" id="text-0"></path></svg></g></svg></g><g transform="matrix(1,0,0,1,118.31980799999998,81.08593554363063)"><svg viewBox="0 0 158.88038399999996 3.461485484367919" height="3.461485484367919" width="158.88038399999996"><g transform="matrix(1,0,0,1,0,0)"><svg width="158.88038399999996" viewBox="5 -28.799999237060547 1324.0999755859375 28.849998474121094" height="3.461485484367919" data-palette-color="#87c0cd"><path d="M5 0L5-28.75 21-28.75 21-23.1 11.3-23.1 11.3-17.2 21-17.2 21-11.5 11.3-11.5 11.3-5.85 21-5.85 21 0 5 0ZM33.8 0L39.45-3.4 39.45-12.15 34.75-14.35 39.45-16.6 39.45-25.3 33.8-28.75 23.45-28.75 23.45-23.1 33.15-23.1 33.15-17.2 23.45-17.2 23.45-11.5 33.15-11.5 33.15-5.85 23.45-5.85 23.45 0 33.8 0ZM48.45 0.05L48.45-28.75 54.85-28.75 54.85 0.05 48.45 0.05ZM59.85-3.5L59.85-18.55 65.7-22 73.6-22 73.6-17.3 66.1-17.3 66.1-5.4 73.6-5.4 73.6-0.05 65.7-0.05 59.85-3.5ZM89.2-3.5L89.2-18.55 83.35-22 75.4-22 75.4-17.3 82.95-17.3 82.95-5.4 75.4-5.4 75.4-0.05 83.35-0.05 89.2-3.5ZM97.19-3.45L97.19-18.6 102.89-22.05 111.09-22.05 111.09-17.35 103.54-17.35 103.54-5.3 110.89-5.3 110.89 0 102.89 0 97.19-3.45ZM120.89-15.1L127.19-15.1 127.19-18.6 121.49-22.05 113.34-22.05 113.34-17.35 120.89-17.35 120.89-15.1ZM120.89-6.95L127.19-6.95 127.19-3.45 121.49 0 113.34 0 113.34-5.3 120.89-5.3 120.89-6.95ZM132.09 0.05L132.09-28.75 138.39-28.75 138.39-13.1 141.19-13.1 141.19-9.45 138.39-9.45 138.39 0.05 132.09 0.05ZM161.94-3.4L149.39-11.5 160.84-19.05 156.69-22 143.69-13.1 143.69-9.45 156.29 0.05 161.94-3.4ZM167.44-3.45L167.44-18.6 173.14-22.05 181.34-22.05 181.34-17.35 173.79-17.35 173.79-5.3 181.14-5.3 181.14 0 173.14 0 167.44-3.45ZM191.14-15.1L197.44-15.1 197.44-18.6 191.74-22.05 183.59-22.05 183.59-17.35 191.14-17.35 191.14-15.1ZM191.14-6.95L197.44-6.95 197.44-3.45 191.74 0 183.59 0 183.59-5.3 191.14-5.3 191.14-6.95ZM202.34 0.05L202.34-28.75 208.49-28.75 208.49-22 216.09-22 216.09-17.2 208.49-17.2 208.49 0.05 202.34 0.05ZM232.09 0.05L232.09-18.55 226.44-22 218.29-22 218.29-17.2 225.79-17.2 225.79 0.05 232.09 0.05ZM240.58-3.4L240.58-9.75 246.28-13.2 254.48-13.2 254.48-9.35 246.93-9.35 246.93-5.25 254.48-5.25 254.48 0.05 246.28 0.05 240.58-3.4ZM246.93-15.05L240.58-15.05 240.58-18.5 246.28-22 254.48-22 254.48-17.3 246.93-17.3 246.93-15.05ZM270.58 0.05L270.58-18.5 264.88-22 256.68-22 256.68-17.3 264.23-17.3 264.23-13.2 256.68-13.2 256.68-9.35 264.23-9.35 264.23-5.25 256.88-5.25 256.88 0.05 270.58 0.05ZM279.08-22L285.38-22 285.38 0.05 279.08 0.05 279.08-22ZM285.28-28.7L285.28-24.05 279.08-24.05 279.08-28.7 285.28-28.7ZM294.38-0.05L294.38-22 300.73-22 300.73-19.85 308.13-22 308.13-17.3 300.73-17.3 300.73-0.05 294.38-0.05ZM324.33-0.05L324.33-18.55 318.43-22 310.53-22 310.53-17.3 318.08-17.3 318.08-0.05 324.33-0.05ZM344.63-14.8L344.63-14.8 344.63-12.35 332.83-12.35 332.83-14.8 344.63-14.8ZM353.62 0L353.62-28.75 369.62-28.75 369.62-23.1 359.92-23.1 359.92-17.2 369.62-17.2 369.62-11.5 359.92-11.5 359.92-5.85 369.62-5.85 369.62 0 353.62 0ZM382.42 0L388.07-3.4 388.07-12.15 383.37-14.35 388.07-16.6 388.07-25.3 382.42-28.75 372.07-28.75 372.07-23.1 381.77-23.1 381.77-17.2 372.07-17.2 372.07-11.5 381.77-11.5 381.77-5.85 372.07-5.85 372.07 0 382.42 0ZM396.07-3.4L396.07-9.75 401.77-13.2 409.97-13.2 409.97-9.35 402.42-9.35 402.42-5.25 409.97-5.25 409.97 0.05 401.77 0.05 396.07-3.4ZM402.42-15.05L396.07-15.05 396.07-18.5 401.77-22 409.97-22 409.97-17.3 402.42-17.3 402.42-15.05ZM426.07 0.05L426.07-18.5 420.37-22 412.17-22 412.17-17.3 419.72-17.3 419.72-13.2 412.17-13.2 412.17-9.35 419.72-9.35 419.72-5.25 412.37-5.25 412.37 0.05 426.07 0.05ZM464.37-9.7L464.37-3.45 458.67 0 450.62 0 450.62-5.25 458.32-5.25 458.32-9.3 450.77-9.3 450.77-13.2 458.67-13.2 464.37-9.7ZM434.57-12.75L434.57-18.4 440.27-21.85 448.37-21.85 448.37-17.2 440.87-17.2 440.87-13.2 448.37-13.2 448.37-9.3 440.27-9.3 434.57-12.75ZM434.57-6.95L440.87-6.95 440.87-5.25 448.37-5.25 448.37 0 440.27 0 434.57-3.45 434.57-6.95ZM464.37-15.05L458.12-15.05 458.12-17.2 450.62-17.2 450.62-21.85 458.67-21.85 464.37-18.4 464.37-15.05ZM502.57-18.55L502.57-12.85 496.67-9.4 488.67-9.4 488.67-13.25 496.22-13.25 496.22-17.35 488.67-17.35 488.67-22.05 496.67-22.05 502.57-18.55ZM496.02-6.95L502.57-6.95 502.57-3.45 496.67 0 488.67 0 488.67-5.3 496.02-5.3 496.02-6.95ZM472.37-18.55L472.37-3.45 478.27 0 486.22 0 486.22-5.3 478.67-5.3 478.67-9.4 486.22-9.4 486.22-13.25 478.67-13.25 478.67-17.35 486.22-17.35 486.22-22.05 478.27-22.05 472.37-18.55ZM540.36-28.8L540.36 0 526.76 0 526.76-5.25 534.06-5.25 534.06-17.25 526.56-17.25 526.56-21.9 534.06-21.9 534.06-28.8 540.36-28.8ZM510.56-3.45L510.56-18.45 516.26-21.9 524.36-21.9 524.36-17.25 516.66-17.25 516.66-5.25 524.16-5.25 524.16 0 516.26 0 510.56-3.45ZM565.36-28.75L565.36-28.75 571.66-28.75 571.66-17.2 581.36-17.2 581.36-11.5 571.66-11.5 571.66 0 565.36 0 565.36-28.75ZM599.81-28.75L599.81-28.75 593.51-28.75 593.51-17.2 583.81-17.2 583.81-11.5 593.51-11.5 593.51 0 599.81 0 599.81-28.75ZM604.8-3.5L604.8-18.55 610.65-22 618.55-22 618.55-17.3 611.05-17.3 611.05-5.4 618.55-5.4 618.55-0.05 610.65-0.05 604.8-3.5ZM634.15-3.5L634.15-18.55 628.3-22 620.35-22 620.35-17.3 627.9-17.3 627.9-5.4 620.35-5.4 620.35-0.05 628.3-0.05 634.15-3.5ZM651.65-17.2L651.65-21.85 659.15-21.85 659.15-17.2 651.65-17.2ZM659.15-7.5L665.45-7.5 665.45-3.45 659.75 0 651.65 0 651.65-5.25 659.15-5.25 659.15-7.5ZM638.65-19.35L649.4-25.3 649.4-5.25 649.4 0 643.15-3.45 643.15-17.2 638.65-17.15 638.65-19.35ZM701.15-18.55L701.15-12.85 695.25-9.4 687.25-9.4 687.25-13.25 694.8-13.25 694.8-17.35 687.25-17.35 687.25-22.05 695.25-22.05 701.15-18.55ZM694.6-6.95L701.15-6.95 701.15-3.45 695.25 0 687.25 0 687.25-5.3 694.6-5.3 694.6-6.95ZM670.95-18.55L670.95-3.45 676.85 0 684.8 0 684.8-5.3 677.25-5.3 677.25-9.4 684.8-9.4 684.8-13.25 677.25-13.25 677.25-17.35 684.8-17.35 684.8-22.05 676.85-22.05 670.95-18.55ZM710.15 0.05L710.15-28.75 716.55-28.75 716.55 0.05 710.15 0.05ZM740.54-25.3L740.54-25.3 746.24-28.75 756.54-28.75 756.54-23.1 746.84-23.1 746.84-17.2 756.54-17.2 756.54-11.5 746.84-11.5 746.84 0 740.54 0 740.54-25.3ZM774.99-25.3L774.99-25.3 769.09-28.75 758.79-28.75 758.79-23.1 768.69-23.1 768.69-17.2 758.79-17.2 758.79-11.5 768.69-11.5 768.69 0 774.99 0 774.99-25.3ZM779.89-3.45L779.89-18.6 785.59-22.05 793.79-22.05 793.79-17.35 786.24-17.35 786.24-5.3 793.59-5.3 793.59 0 785.59 0 779.89-3.45ZM803.59-15.1L809.89-15.1 809.89-18.6 804.19-22.05 796.04-22.05 796.04-17.35 803.59-17.35 803.59-15.1ZM803.59-6.95L809.89-6.95 809.89-3.45 804.19 0 796.04 0 796.04-5.3 803.59-5.3 803.59-6.95ZM817.89-3.45L817.89-18.6 823.59-22.05 831.79-22.05 831.79-17.35 824.24-17.35 824.24-5.3 831.59-5.3 831.59 0 823.59 0 817.89-3.45ZM841.59-15.1L847.89-15.1 847.89-18.6 842.19-22.05 834.04-22.05 834.04-17.35 841.59-17.35 841.59-15.1ZM841.59-6.95L847.89-6.95 847.89-3.45 842.19 0 834.04 0 834.04-5.3 841.59-5.3 841.59-6.95ZM886.08-18.55L886.08-12.85 880.18-9.4 872.18-9.4 872.18-13.25 879.73-13.25 879.73-17.35 872.18-17.35 872.18-22.05 880.18-22.05 886.08-18.55ZM879.53-6.95L886.08-6.95 886.08-3.45 880.18 0 872.18 0 872.18-5.3 879.53-5.3 879.53-6.95ZM855.88-18.55L855.88-3.45 861.78 0 869.73 0 869.73-5.3 862.18-5.3 862.18-9.4 869.73-9.4 869.73-13.25 862.18-13.25 862.18-17.35 869.73-17.35 869.73-22.05 861.78-22.05 855.88-18.55ZM923.88-9.7L923.88-3.45 918.18 0 910.13 0 910.13-5.25 917.83-5.25 917.83-9.3 910.28-9.3 910.28-13.2 918.18-13.2 923.88-9.7ZM894.08-12.75L894.08-18.4 899.78-21.85 907.88-21.85 907.88-17.2 900.38-17.2 900.38-13.2 907.88-13.2 907.88-9.3 899.78-9.3 894.08-12.75ZM894.08-6.95L900.38-6.95 900.38-5.25 907.88-5.25 907.88 0 899.78 0 894.08-3.45 894.08-6.95ZM923.88-15.05L917.63-15.05 917.63-17.2 910.13-17.2 910.13-21.85 918.18-21.85 923.88-18.4 923.88-15.05ZM961.68-9.7L961.68-3.45 955.98 0 947.93 0 947.93-5.25 955.63-5.25 955.63-9.3 948.08-9.3 948.08-13.2 955.98-13.2 961.68-9.7ZM931.88-12.75L931.88-18.4 937.58-21.85 945.68-21.85 945.68-17.2 938.18-17.2 938.18-13.2 945.68-13.2 945.68-9.3 937.58-9.3 931.88-12.75ZM931.88-6.95L938.18-6.95 938.18-5.25 945.68-5.25 945.68 0 937.58 0 931.88-3.45 931.88-6.95ZM961.68-15.05L955.43-15.05 955.43-17.2 947.93-17.2 947.93-21.85 955.98-21.85 961.68-18.4 961.68-15.05ZM984.67-3.4L984.67-9.75 990.37-13.2 998.57-13.2 998.57-9.35 991.02-9.35 991.02-5.25 998.57-5.25 998.57 0.05 990.37 0.05 984.67-3.4ZM991.02-15.05L984.67-15.05 984.67-18.5 990.37-22 998.57-22 998.57-17.3 991.02-17.3 991.02-15.05ZM1014.67 0.05L1014.67-18.5 1008.97-22 1000.77-22 1000.77-17.3 1008.32-17.3 1008.32-13.2 1000.77-13.2 1000.77-9.35 1008.32-9.35 1008.32-5.25 1000.97-5.25 1000.97 0.05 1014.67 0.05ZM1024.17-0.05L1024.17-22 1030.52-22 1030.52-19.85 1037.92-22 1037.92-17.3 1030.52-17.3 1030.52-0.05 1024.17-0.05ZM1054.12-0.05L1054.12-18.55 1048.22-22 1040.32-22 1040.32-17.3 1047.87-17.3 1047.87-0.05 1054.12-0.05ZM1092.42-28.8L1092.42 0 1078.82 0 1078.82-5.25 1086.12-5.25 1086.12-17.25 1078.62-17.25 1078.62-21.9 1086.12-21.9 1086.12-28.8 1092.42-28.8ZM1062.62-3.45L1062.62-18.45 1068.32-21.9 1076.42-21.9 1076.42-17.25 1068.72-17.25 1068.72-5.25 1076.22-5.25 1076.22 0 1068.32 0 1062.62-3.45ZM1115.91-14.75L1115.91-25.3 1121.61-28.75 1131.91-28.75 1131.91-22.85 1122.01-22.85 1122.01-17.2 1131.91-17.2 1131.91-11.35 1121.61-11.35 1115.91-14.75ZM1150.36-3.4L1150.36-13.75 1144.46-17.2 1134.16-17.2 1134.16-11.35 1144.06-11.35 1144.06-5.65 1134.36-5.65 1134.36 0 1144.46 0 1150.36-3.4ZM1115.91-9.1L1122.21-9.1 1122.21-5.65 1131.91-5.65 1131.91 0 1121.76 0 1115.91-3.4 1115.91-9.1ZM1144.06-19.45L1150.36-19.45 1150.36-25.3 1144.46-28.75 1134.16-28.75 1134.16-22.85 1144.06-22.85 1144.06-19.45ZM1167.36-17.2L1167.36-21.85 1174.86-21.85 1174.86-17.2 1167.36-17.2ZM1174.86-7.5L1181.16-7.5 1181.16-3.45 1175.46 0 1167.36 0 1167.36-5.25 1174.86-5.25 1174.86-7.5ZM1154.36-19.35L1165.11-25.3 1165.11-5.25 1165.11 0 1158.86-3.45 1158.86-17.2 1154.36-17.15 1154.36-19.35ZM1187.66 0L1187.66-21.85 1193.91-21.85 1193.91-19.7 1201.41-21.85 1201.41-17.2 1193.91-17.2 1193.91 0 1187.66 0ZM1210.16-15.05L1210.16-19.1 1203.66-21.85 1203.66-15.05 1210.16-15.05ZM1244.86-18.55L1244.86-12.85 1238.96-9.4 1230.96-9.4 1230.96-13.25 1238.51-13.25 1238.51-17.35 1230.96-17.35 1230.96-22.05 1238.96-22.05 1244.86-18.55ZM1238.31-6.95L1244.86-6.95 1244.86-3.45 1238.96 0 1230.96 0 1230.96-5.3 1238.31-5.3 1238.31-6.95ZM1214.66-18.55L1214.66-3.45 1220.56 0 1228.51 0 1228.51-5.3 1220.96-5.3 1220.96-9.4 1228.51-9.4 1228.51-13.25 1220.96-13.25 1220.96-17.35 1228.51-17.35 1228.51-22.05 1220.56-22.05 1214.66-18.55ZM1252.85-3.4L1252.85-9.75 1258.55-13.2 1266.75-13.2 1266.75-9.35 1259.2-9.35 1259.2-5.25 1266.75-5.25 1266.75 0.05 1258.55 0.05 1252.85-3.4ZM1259.2-15.05L1252.85-15.05 1252.85-18.5 1258.55-22 1266.75-22 1266.75-17.3 1259.2-17.3 1259.2-15.05ZM1282.85 0.05L1282.85-18.5 1277.15-22 1268.95-22 1268.95-17.3 1276.5-17.3 1276.5-13.2 1268.95-13.2 1268.95-9.35 1276.5-9.35 1276.5-5.25 1269.15-5.25 1269.15 0.05 1282.85 0.05ZM1292.35-0.05L1292.35-22 1298.6-22 1298.6-19.85 1306.3-22 1306.3-17.3 1298.6-17.3 1298.6-0.05 1292.35-0.05ZM1329.1-18.55L1323.4-22 1321.25-22 1314.85-19.25 1308.3-22 1308.3-17.3 1308.3-0.05 1314.85-0.05 1314.85-17.3 1322.85-17.3 1322.85-0.05 1329.1-0.05 1329.1-18.55Z" opacity="1" transform="matrix(1,0,0,1,0,0)" fill="#87c0cd" class="undefined-text-1" data-fill-palette-color="secondary" id="text-1"></path></svg></g></svg></g></svg></g></svg></g><g transform="matrix(1,0,0,1,154.75743240817312,0)"><svg viewBox="0 0 86.00513518365369 84.54742102799855" height="84.54742102799855" width="86.00513518365369"><g><svg xmlns="http://www.w3.org/2000/svg" xmlns:xlink="http://www.w3.org/1999/xlink" version="1.1" x="0" y="0" viewBox="3 3 59 58" style="enable-background:new 0 0 64 64;" xml:space="preserve" height="84.54742102799855" width="86.00513518365369" class="icon-icon-0" data-fill-palette-color="accent" id="icon-0"><g fill="#87c0cd" data-fill-palette-color="accent"><path d="M39 19c0-0.552-0.448-1-1-1h-9v3h10V19z" fill="#87c0cd" data-fill-palette-color="accent"></path><path d="M41 19v2l2-3h1l2 3h1l2-3h1l2 3h1l2-3h1l2 3h1l3-4-3-4H29v3h9C39.654 16 41 17.346 41 19z" fill="#87c0cd" data-fill-palette-color="accent"></path><path d="M6.839 30.848L11.649 27h15.24C26.956 26.672 27 26.34 27 26V8c0-2.757-2.243-5-5-5H8C5.243 3 3 5.243 3 8v18C3 28.324 4.603 30.315 6.839 30.848zM7.5 12.625C7.5 11.177 8.677 10 10.125 10h1.75c1.448 0 2.625 1.177 2.625 2.625v8.75c0 1.448-1.177 2.625-2.625 2.625h-1.75C8.677 24 7.5 22.823 7.5 21.375V12.625z" fill="#87c0cd" data-fill-palette-color="accent"></path><rect x="25" y="49" width="8" height="6" fill="#87c0cd" data-fill-palette-color="accent"></rect><rect x="9" y="49" width="8" height="6" fill="#87c0cd" data-fill-palette-color="accent"></rect><path d="M49 45c-3.309 0-6 2.691-6 6v10h2V49h8v12h2V51C55 47.691 52.309 45 49 45z" fill="#87c0cd" data-fill-palette-color="accent"></path><rect x="47" y="51" width="4" height="10" fill="#87c0cd" data-fill-palette-color="accent"></rect><path d="M49.634 27.227c-0.358-0.293-0.914-0.292-1.265-0.003l-11.003 9.003c-0.426 0.349-0.49 0.979-0.142 1.405 0.336 0.412 0.992 0.479 1.411 0.141L49 29.292l10.368 8.482c0.412 0.337 1.069 0.268 1.405-0.141 0.35-0.427 0.286-1.059-0.142-1.409L49.634 27.227z" fill="#87c0cd" data-fill-palette-color="accent"></path><path d="M49 31.876l-9.102 7.447c-0.27 0.219-0.578 0.37-0.898 0.477V61h2V51c0-4.411 3.589-8 8-8s8 3.589 8 8v10h2V39.827c-0.324-0.115-0.628-0.284-0.897-0.504L49 31.876z" fill="#87c0cd" data-fill-palette-color="accent"></path><path d="M5 61h32V43H5V61zM23 47h12v10H23V47zM7 47h12v10H7V47z" fill="#87c0cd" data-fill-palette-color="accent"></path><path d="M36.1 34.679L43.04 29H12.351l-7.5 6H33v2H3v4h34v-1.209c-0.509-0.173-0.976-0.467-1.323-0.893C34.631 37.62 34.819 35.728 36.1 34.679z" fill="#87c0cd" data-fill-palette-color="accent"></path></g></svg></g></svg></g><g></g></svg></g><defs></defs></svg><rect width="395.5199999999999" height="172.90456985098297" fill="none" stroke="none" visibility="hidden"></rect></g></svg></g></svg>